<svg width="487" height="368" viewBox="0 0 487 368" fill="none" xmlns="http://www.w3.org/2000/svg">
<g clip-path="url(#clip0_2176_6683)">
<mask id="mask0_2176_6683" style="mask-type:luminance" maskUnits="userSpaceOnUse" x="-2203" y="-5318" width="5308" height="5686">
<path d="M3105 -5318H-2203V368H3105V-5318Z" fill="white"/>
</mask>
<g mask="url(#mask0_2176_6683)">
<path d="M137.001 338.751C136.962 339.092 136.902 339.43 136.821 339.764C136.722 340.673 136.867 341.59 137.241 342.433C137.784 343.675 138.815 344.675 140.121 345.225C141.597 345.822 143.433 345.552 145.353 345.327C146.312 345.203 147.285 345.203 148.245 345.327C149.153 345.463 150.02 345.777 150.789 346.25C152.038 347.076 153.075 348.153 153.825 349.403C154.339 350.219 154.789 351.069 155.169 351.948C155.341 352.254 155.458 352.585 155.517 352.927C155.421 352.984 154.797 351.61 153.453 349.628C152.69 348.471 151.676 347.477 150.477 346.712C149.769 346.292 148.976 346.016 148.149 345.901C147.245 345.784 146.328 345.784 145.425 345.901C143.553 346.104 141.561 346.419 139.893 345.71C139.188 345.403 138.555 344.968 138.03 344.431C137.504 343.894 137.098 343.265 136.833 342.579C136.463 341.667 136.376 340.676 136.581 339.719C136.642 339.462 136.734 339.213 136.857 338.976C136.894 338.895 136.942 338.82 137.001 338.751Z" fill="white"/>
<path d="M466.568 368.378C466.664 334.098 458.849 300.257 443.732 269.492C428.614 238.728 406.6 211.868 379.406 191.005C352.213 170.141 320.572 155.838 286.948 149.207C253.324 142.576 218.624 143.797 185.548 152.775C152.473 161.754 121.915 178.246 96.2548 200.97C70.5944 223.693 50.5231 252.033 37.6039 283.785C24.6849 315.537 19.267 349.842 21.7711 384.032C24.2752 418.221 34.6339 451.369 52.0413 480.899C60.501 495.307 71.2471 505.599 81.9933 520.693L211.176 691.991C214.926 696.963 219.78 700.997 225.355 703.776C230.929 706.555 237.072 708 243.3 708C249.528 708 255.672 706.555 261.246 703.776C266.82 700.997 271.674 696.963 275.424 691.991L402.549 523.438C414.095 509.805 424.86 495.525 434.787 480.67C455.274 446.775 466.251 407.984 466.568 368.378ZM244.1 465.347C224.681 465.393 205.685 459.671 189.52 448.908C173.355 438.143 160.748 422.823 153.295 404.886C145.843 386.948 143.881 367.202 147.659 348.15C151.436 329.096 160.782 311.593 174.514 297.858C188.246 284.123 205.744 274.774 224.792 270.996C243.842 267.217 263.58 269.179 281.513 276.634C299.445 284.088 314.764 296.699 325.524 312.868C336.284 329.038 342.004 348.039 341.959 367.463C341.929 380.366 339.355 393.137 334.384 405.046C329.411 416.952 322.142 427.76 312.988 436.853C303.835 445.947 292.977 453.144 281.039 458.031C269.1 462.921 256.314 465.407 243.414 465.347H244.1Z" fill="#FBBC05"/>
<path d="M20.0751 368.378C19.9793 334.098 27.7967 300.257 42.9187 269.492C58.0407 238.728 80.0592 211.868 107.26 191.005C134.461 170.141 166.11 155.838 199.743 149.207C233.376 142.576 268.086 143.797 301.17 152.775C334.254 161.754 364.818 178.246 390.485 200.97C416.152 223.693 436.23 252.033 449.152 283.785C462.076 315.537 467.494 349.842 464.989 384.032C462.485 418.221 452.123 451.369 434.712 480.899C426.25 495.307 415.501 505.599 404.752 520.693L275.535 691.991C271.784 696.963 266.929 700.997 261.353 703.776C255.778 706.555 249.632 708 243.403 708C237.173 708 231.028 706.555 225.452 703.776C219.877 700.997 215.021 696.963 211.27 691.991L84.1114 523.438C72.5615 509.805 61.7958 495.525 51.8649 480.67C31.3739 446.775 20.3923 407.984 20.0751 368.378ZM242.602 465.347C262.026 465.393 281.026 459.671 297.196 448.908C313.367 438.143 325.978 422.823 333.431 404.886C340.884 386.948 342.847 367.202 339.069 348.15C335.29 329.096 325.941 311.593 312.208 297.858C298.472 284.123 280.969 274.774 261.916 270.996C242.861 267.217 223.116 269.179 205.179 276.634C187.241 284.088 171.92 296.699 161.157 312.868C150.394 329.038 144.673 348.039 144.718 367.463C144.748 380.366 147.323 393.137 152.295 405.046C157.268 416.952 164.54 427.76 173.696 436.853C182.852 445.947 193.712 453.144 205.654 458.031C217.595 462.921 230.385 465.407 243.288 465.347H242.602Z" fill="#FBBC05"/>
<path d="M313.497 14.7305L352.988 23.5288L325.108 148.668L285.617 139.87L313.497 14.7305Z" fill="#F5F5F5"/>
<path d="M313.499 14.7393L333.244 19.1385L305.439 143.942L285.693 139.543L313.499 14.7393Z" fill="#EBEBEB"/>
<path d="M337.265 7.13477L351.212 10.242L348.475 22.5242L334.529 19.4171L337.265 7.13477Z" fill="#F5F5F5"/>
<path d="M337.269 7.14062L340.598 7.88215L337.861 20.1644L334.533 19.4228L337.269 7.14062Z" fill="#EBEBEB"/>
<path d="M356.274 24.245L356.431 23.5337L312.499 13.7432L312.342 14.4545" fill="#E0E0E0"/>
<path d="M340.667 26.4121L344.006 27.1559L342.436 34.2006L339.098 33.4568L340.667 26.4121Z" fill="#FAFAFA"/>
<path d="M329.852 34.3387C329.852 34.412 334.245 35.458 339.695 36.6713C345.145 37.8847 349.58 38.7633 349.601 38.7633C349.621 38.7633 345.207 37.6441 339.758 36.4307C334.308 35.2174 329.873 34.2132 329.852 34.3387Z" fill="#E0E0E0"/>
<path d="M320.723 21.9287L324.061 22.6731L322.491 29.7175L319.152 28.9731L320.723 21.9287Z" fill="#E0E0E0"/>
<path d="M309.936 29.8506C309.936 29.9239 314.329 30.9699 319.779 32.1832C325.229 33.3966 329.664 34.3275 329.685 34.2752C329.705 34.2229 325.291 33.156 319.842 31.9426C314.392 30.7293 309.957 29.7774 309.936 29.8506Z" fill="#E0E0E0"/>
<path d="M317.606 35.9248L320.944 36.6691L319.374 43.7136L316.035 42.9692L317.606 35.9248Z" fill="#E0E0E0"/>
<path d="M306.818 43.8461C306.818 43.9194 311.211 44.9654 316.661 46.1787C322.11 47.3921 326.545 48.2707 326.566 48.2707C326.587 48.2707 322.173 47.1515 316.723 45.9381C311.274 44.7248 306.839 43.752 306.818 43.8461Z" fill="#E0E0E0"/>
<path d="M314.389 50.3379L317.728 51.0823L316.157 58.1267L312.818 57.3824L314.389 50.3379Z" fill="#E0E0E0"/>
<path d="M303.607 58.2609C303.607 58.3342 308 59.3802 313.45 60.5935C318.899 61.8069 323.334 62.6855 323.355 62.6855C323.376 62.6855 318.962 61.5663 313.513 60.3529C308.063 59.1396 303.628 58.1773 303.607 58.2609Z" fill="#E0E0E0"/>
<path d="M311.174 64.7539L314.513 65.4982L312.942 72.5427L309.604 71.7983L311.174 64.7539Z" fill="#E0E0E0"/>
<path d="M300.395 72.6739C300.395 72.7471 304.788 73.7931 310.238 75.0065C315.688 76.2198 320.123 77.0985 320.144 77.0985C320.164 77.0985 315.75 75.9792 310.301 74.7659C304.851 73.5525 300.416 72.6007 300.395 72.6739Z" fill="#E0E0E0"/>
<path d="M308.089 78.8047L311.428 79.5486L309.858 86.5932L306.52 85.8494L308.089 78.8047Z" fill="#E0E0E0"/>
<path d="M297.277 86.6387C297.277 86.7119 301.659 87.7579 307.119 88.9712C312.58 90.1846 317.004 91.1156 317.015 91.0633C317.025 91.011 312.632 89.944 307.172 88.7307C301.712 87.5173 297.287 86.6387 297.277 86.6387Z" fill="#E0E0E0"/>
<path d="M304.915 92.8125L308.253 93.5569L306.682 100.601L303.344 99.8569L304.915 92.8125Z" fill="#E0E0E0"/>
<path d="M301.783 107.1L305.121 107.844L303.552 114.888L300.213 114.145L301.783 107.1Z" fill="#E0E0E0"/>
<path d="M294.141 100.729C294.141 100.802 298.534 101.848 303.984 103.072C309.434 104.295 313.869 105.164 313.89 105.164C313.911 105.164 309.496 104.044 304.047 102.831C298.597 101.618 294.162 100.655 294.141 100.729Z" fill="#E0E0E0"/>
<path d="M337.466 40.5859L340.805 41.3303L339.234 48.3747L335.896 47.6303L337.466 40.5859Z" fill="#FAFAFA"/>
<path d="M326.691 48.4913C326.691 48.5645 331.073 49.6105 336.534 50.8238C341.994 52.0372 346.418 52.9681 346.429 52.9158C346.439 52.8635 342.046 51.7966 336.586 50.5833C331.126 49.3699 326.701 48.418 326.691 48.4913Z" fill="#E0E0E0"/>
<path d="M334.303 54.7861L337.642 55.5305L336.071 62.5749L332.732 61.8305L334.303 54.7861Z" fill="#FAFAFA"/>
<path d="M323.523 62.6955C323.523 62.7687 327.916 63.8147 333.366 65.0386C338.815 66.2624 343.25 67.1306 343.271 67.1306C343.292 67.1306 338.878 66.0113 333.429 64.798C327.979 63.5846 323.544 62.5805 323.523 62.6955Z" fill="#E0E0E0"/>
<path d="M331.141 68.998L334.479 69.7424L332.909 76.7868L329.57 76.0424L331.141 68.998Z" fill="#FAFAFA"/>
<path d="M320.354 76.9103C320.354 76.9836 324.747 78.0296 330.197 79.2429C335.647 80.4563 340.082 81.3349 340.102 81.3349C340.123 81.3349 335.709 80.2157 330.26 79.0023C324.81 77.789 320.375 76.8267 320.354 76.9103Z" fill="#E0E0E0"/>
<path d="M327.997 83.2285L331.336 83.9723L329.766 91.017L326.428 90.2731L327.997 83.2285Z" fill="#FAFAFA"/>
<path d="M317.193 91.1153C317.193 91.1885 321.575 92.2345 327.025 93.4479C332.475 94.6612 336.92 95.5399 336.931 95.5399C336.941 95.5399 332.548 94.4206 327.088 93.2073C321.628 91.9939 317.203 91.0421 317.193 91.1153Z" fill="#E0E0E0"/>
<path d="M324.799 97.3965L328.138 98.1409L326.567 105.185L323.229 104.441L324.799 97.3965Z" fill="#FAFAFA"/>
<path d="M314.023 105.32C314.023 105.394 318.416 106.44 323.866 107.653C329.315 108.866 333.75 109.797 333.761 109.745C333.771 109.693 329.378 108.626 323.928 107.412C318.479 106.199 314.044 105.247 314.023 105.32Z" fill="#E0E0E0"/>
<path d="M321.635 111.609L324.974 112.354L323.403 119.398L320.064 118.654L321.635 111.609Z" fill="#FAFAFA"/>
<path d="M249.676 71.9414L308.464 77.571L301.039 155.112L242.25 149.483L249.676 71.9414Z" fill="#EBEBEB"/>
<path d="M249.671 71.9336L277.232 74.5729L269.807 152.114L242.246 149.475L249.671 71.9336Z" fill="#E0E0E0"/>
<path d="M289.835 86.377L295.124 86.8835L293.895 99.722L288.605 99.2154L289.835 86.377Z" fill="#F5F5F5"/>
<path d="M285.022 136.65L290.311 137.156L289.082 149.995L283.793 149.488L285.022 136.65Z" fill="#F5F5F5"/>
<path d="M274.518 102.956C274.518 103.103 281.484 103.887 290.103 104.713C298.722 105.54 305.72 106.094 305.793 105.948C305.867 105.801 298.827 105.017 290.208 104.19C281.589 103.364 274.528 102.81 274.518 102.956Z" fill="#F5F5F5"/>
<path d="M287.412 111.7L292.701 112.206L291.472 125.044L286.182 124.538L287.412 111.7Z" fill="#F5F5F5"/>
<path d="M272.09 128.279C272.09 128.426 279.057 129.21 287.676 130.037C296.295 130.863 303.303 131.417 303.366 131.271C303.429 131.124 296.399 130.34 287.78 129.514C279.161 128.687 272.101 128.133 272.09 128.279Z" fill="#F5F5F5"/>
<path d="M265.08 84.0078L270.369 84.5144L269.14 97.3528L263.85 96.8463L265.08 84.0078Z" fill="#F5F5F5"/>
<path d="M253.626 82.9199L258.915 83.4264L257.686 96.2648L252.396 95.7583L253.626 82.9199Z" fill="#F5F5F5"/>
<path d="M262.756 108.38L268.046 108.887L266.816 121.725L261.527 121.219L262.756 108.38Z" fill="#F5F5F5"/>
<path d="M251.283 107.271L256.572 107.777L255.343 120.616L250.053 120.109L251.283 107.271Z" fill="#F5F5F5"/>
<path d="M260.422 132.753L265.712 133.26L264.482 146.098L259.193 145.592L260.422 132.753Z" fill="#F5F5F5"/>
<path d="M248.951 131.645L254.24 132.151L253.011 144.99L247.721 144.483L248.951 131.645Z" fill="#F5F5F5"/>
<path d="M245.514 68.8203L313.143 75.2964L312.874 78.0973L245.246 71.6212L245.514 68.8203Z" fill="#E0E0E0"/>
<path d="M249.225 72.2557C249.225 72.4022 262.331 73.7724 278.513 75.3205C294.695 76.8686 307.874 78.0192 307.885 77.8727C307.895 77.7263 294.768 76.3561 278.597 74.808C262.426 73.2599 249.236 72.1093 249.225 72.2557Z" fill="#EBEBEB"/>
<path d="M301.232 157.369L355.687 181.437L393.949 95.4874L339.505 71.4189L301.232 157.369Z" fill="#EBEBEB"/>
<path d="M339.513 71.4287L366.742 83.4609L328.713 169.521L301.484 157.489L339.513 71.4287Z" fill="#E0E0E0"/>
<path d="M376.002 67.3125L395.232 75.8103L387.745 92.7544L368.514 84.2566L376.002 67.3125Z" fill="#EBEBEB"/>
<path d="M375.999 67.3105L380.582 69.3356L373.095 86.2796L368.512 84.2545L375.999 67.3105Z" fill="#E0E0E0"/>
<path d="M338.349 69.7441L398.931 96.5143L398.495 97.4997L337.914 70.7295L338.349 69.7441Z" fill="#E0E0E0"/>
<path d="M375.348 96.0996L379.96 98.1374L375.665 107.858L371.053 105.821L375.348 96.0996Z" fill="white"/>
<path d="M357.487 104.421C357.435 104.525 363.502 107.308 371.012 110.624C378.522 113.939 384.61 116.565 384.715 116.46C384.819 116.356 378.7 113.584 371.179 110.257C363.659 106.931 357.529 104.274 357.487 104.421Z" fill="#E0E0E0"/>
<path d="M347.878 83.9648L352.489 86.0025L348.194 95.7231L343.582 93.6854L347.878 83.9648Z" fill="#F5F5F5"/>
<path d="M330.018 92.2345C330.018 92.3391 336.032 95.111 343.553 98.4373C351.074 101.764 357.151 104.368 357.245 104.263C357.339 104.159 351.231 101.387 343.71 98.0607C336.189 94.7344 330.07 92.1299 330.018 92.2345Z" fill="#EBEBEB"/>
<path d="M339.357 103.252L343.969 105.29L339.673 115.011L335.062 112.973L339.357 103.252Z" fill="#F5F5F5"/>
<path d="M321.492 111.532C321.492 111.637 327.507 114.409 335.027 117.735C342.548 121.061 348.625 123.666 348.72 123.561C348.814 123.457 342.705 120.685 335.184 117.359C327.664 114.032 321.534 111.428 321.492 111.532Z" fill="#EBEBEB"/>
<path d="M330.563 123.141L335.175 125.179L330.879 134.899L326.268 132.862L330.563 123.141Z" fill="#F5F5F5"/>
<path d="M312.707 131.407C312.707 131.512 318.722 134.284 326.242 137.61C333.763 140.936 339.893 143.541 339.934 143.436C339.976 143.332 333.92 140.56 326.399 137.234C318.878 133.907 312.759 131.303 312.707 131.407Z" fill="#EBEBEB"/>
<path d="M321.792 143.021L326.403 145.059L322.108 154.779L317.496 152.741L321.792 143.021Z" fill="#F5F5F5"/>
<path d="M303.922 151.28C303.922 151.385 309.936 154.167 317.457 157.483C324.978 160.799 331.107 163.414 331.149 163.32C331.191 163.226 325.135 160.433 317.614 157.117C310.093 153.801 303.974 151.176 303.922 151.28Z" fill="#EBEBEB"/>
<path d="M366.684 115.686L371.296 117.724L367.001 127.444L362.389 125.406L366.684 115.686Z" fill="white"/>
<path d="M348.824 123.96C348.824 124.065 354.839 126.837 362.36 130.163C369.88 133.489 375.958 136.094 376.052 136C376.146 135.905 370.037 133.113 362.516 129.797C354.996 126.481 348.866 123.855 348.824 123.96Z" fill="#E0E0E0"/>
<path d="M358.038 135.287L362.649 137.325L358.354 147.046L353.742 145.008L358.038 135.287Z" fill="white"/>
<path d="M340.164 143.551C340.164 143.655 346.179 146.427 353.699 149.754C361.22 153.08 367.35 155.684 367.391 155.58C367.433 155.475 361.377 152.703 353.867 149.377C346.356 146.051 340.216 143.446 340.164 143.551Z" fill="#E0E0E0"/>
<path d="M349.372 154.884L353.983 156.922L349.688 166.642L345.076 164.605L349.372 154.884Z" fill="white"/>
<path d="M331.514 163.143C331.514 163.247 337.518 166.019 345.039 169.345C352.56 172.672 358.689 175.276 358.731 175.172C358.773 175.067 352.727 172.295 345.206 168.969C337.686 165.642 331.556 162.996 331.514 163.143Z" fill="#E0E0E0"/>
<path d="M104.646 137.15L126.957 163.3C127.072 163.434 127.16 163.589 127.215 163.757C127.27 163.924 127.291 164.101 127.277 164.277C127.264 164.453 127.215 164.625 127.135 164.782C127.055 164.939 126.945 165.079 126.81 165.193L71.8639 212.002C71.7293 212.118 71.5728 212.206 71.4038 212.261C71.2347 212.316 71.0563 212.337 70.8791 212.323C70.7019 212.308 70.5294 212.258 70.3716 212.176C70.2138 212.094 70.0739 211.982 69.9601 211.845L61.9164 202.148C61.7388 201.927 61.6329 201.657 61.6131 201.374L60.5148 184.147C60.5007 183.941 60.535 183.734 60.6149 183.543C60.6948 183.353 60.8181 183.183 60.975 183.048L69.9915 175.245C70.2583 175.013 70.4223 174.685 70.4478 174.332C70.4733 173.979 70.3581 173.631 70.1275 173.363L66.7594 169.398C66.6445 169.265 66.5571 169.111 66.5023 168.944C66.4474 168.777 66.4262 168.601 66.4398 168.426C66.4534 168.251 66.5016 168.08 66.5816 167.924C66.6616 167.768 66.7718 167.629 66.9058 167.515L102.7 137.004C102.835 136.88 102.994 136.786 103.166 136.726C103.339 136.666 103.522 136.642 103.705 136.656C103.887 136.67 104.064 136.721 104.226 136.806C104.388 136.891 104.531 137.008 104.646 137.15Z" fill="#F5F5F5"/>
<path d="M70.4521 178.842L77.6067 187.21C77.7303 187.363 77.7896 187.557 77.7721 187.752C77.7545 187.948 77.6614 188.128 77.5126 188.256L65.2116 198.371C65.1039 198.458 64.9748 198.515 64.8378 198.535C64.7008 198.555 64.5609 198.538 64.4327 198.485C64.3044 198.433 64.1926 198.347 64.1088 198.237C64.0251 198.127 63.9724 197.996 63.9564 197.858L62.4502 184.742C62.4359 184.615 62.4532 184.486 62.5007 184.368C62.5481 184.249 62.6242 184.144 62.7221 184.062L69.3328 178.738C69.4113 178.667 69.5036 178.613 69.6039 178.58C69.7041 178.547 69.8102 178.534 69.9154 178.544C70.0206 178.554 70.1226 178.586 70.215 178.637C70.3074 178.688 70.3881 178.758 70.4521 178.842Z" fill="#EBEBEB"/>
<path d="M70.4551 214.592L129.589 164.193L131.143 166.016L72.0088 216.415L70.4551 214.592Z" fill="#F5F5F5"/>
<path d="M110.65 181.574C111.635 182.731 112.942 183.571 114.405 183.986C115.868 184.401 117.421 184.373 118.868 183.905C120.315 183.437 121.591 182.551 122.534 181.358C123.477 180.165 124.045 178.719 124.167 177.203C124.288 175.688 123.957 174.17 123.216 172.842C122.475 171.514 121.357 170.436 120.003 169.744C118.649 169.052 117.12 168.777 115.61 168.953C114.099 169.13 112.675 169.751 111.518 170.737C110.748 171.391 110.115 172.19 109.655 173.089C109.194 173.988 108.916 174.969 108.835 175.975C108.755 176.982 108.873 177.994 109.185 178.955C109.496 179.916 109.994 180.806 110.65 181.574Z" fill="#EBEBEB"/>
<path d="M113.055 179.523C113.636 180.206 114.406 180.701 115.267 180.946C116.129 181.191 117.045 181.175 117.897 180.9C118.75 180.625 119.502 180.103 120.058 179.4C120.614 178.697 120.949 177.846 121.021 176.952C121.092 176.059 120.898 175.165 120.461 174.382C120.024 173.6 119.365 172.965 118.567 172.557C117.77 172.149 116.869 171.987 115.979 172.091C115.089 172.196 114.25 172.562 113.568 173.143C112.654 173.921 112.087 175.031 111.991 176.227C111.895 177.423 112.278 178.609 113.055 179.523Z" fill="#FAFAFA"/>
<path d="M90.0434 196.563C90.1898 196.437 84.918 190.015 78.2759 182.222C71.6338 174.429 66.1318 168.216 65.9854 168.342C65.839 168.467 71.1003 174.89 77.7424 182.682C84.3845 190.475 89.8865 196.688 90.0434 196.563Z" fill="#EBEBEB"/>
<path d="M78.7889 208.738C79.7757 209.895 81.0835 210.733 82.5469 211.147C84.0103 211.561 85.5634 211.531 87.0099 211.062C88.4564 210.593 89.7313 209.705 90.6734 208.511C91.6154 207.318 92.1823 205.871 92.3023 204.355C92.4223 202.839 92.0899 201.322 91.3474 199.995C90.6049 198.668 89.4856 197.591 88.1308 196.9C86.7761 196.209 85.247 195.935 83.7368 196.114C82.2266 196.292 80.8032 196.914 79.6466 197.901C78.8765 198.555 78.2431 199.355 77.783 200.254C77.3228 201.153 77.0451 202.134 76.9654 203.141C76.8856 204.148 77.0057 205.161 77.3187 206.122C77.6316 207.082 78.1312 207.971 78.7889 208.738Z" fill="#EBEBEB"/>
<path d="M81.1946 206.688C81.7757 207.366 82.5448 207.857 83.4047 208.099C84.2645 208.34 85.1767 208.321 86.0258 208.045C86.875 207.768 87.6232 207.246 88.1758 206.544C88.7285 205.843 89.0608 204.993 89.1309 204.103C89.201 203.212 89.0056 202.321 88.5695 201.542C88.1334 200.762 87.4761 200.13 86.6806 199.724C85.8851 199.318 84.9872 199.156 84.1001 199.26C83.2131 199.364 82.3767 199.729 81.6967 200.308C81.244 200.693 80.8718 201.164 80.6014 201.694C80.3311 202.223 80.168 202.801 80.1213 203.394C80.0747 203.986 80.1455 204.583 80.3296 205.148C80.5138 205.713 80.8078 206.237 81.1946 206.688Z" fill="#FAFAFA"/>
<path d="M75.4202 192.975C75.5457 193.122 76.4662 192.525 77.5122 191.647C78.5582 190.768 79.2904 189.931 79.1649 189.785C79.0394 189.638 78.1189 190.235 77.0729 191.113C76.0269 191.992 75.2947 192.829 75.4202 192.975Z" fill="#EBEBEB"/>
<path d="M432.735 130.037C434.417 127.807 436.591 125.995 439.088 124.742C441.585 123.489 444.338 122.829 447.131 122.814C449.925 122.798 452.685 123.428 455.195 124.653C457.706 125.878 459.9 127.666 461.607 129.878C463.314 132.089 464.488 134.665 465.037 137.404C465.586 140.143 465.495 142.972 464.772 145.671C464.049 148.369 462.713 150.865 460.869 152.963C459.024 155.061 456.72 156.705 454.136 157.767H454.052C452.787 158.29 451.584 158.426 450.14 158.886L433.3 163.666C432.813 163.805 432.3 163.829 431.802 163.737C431.304 163.645 430.835 163.439 430.429 163.135C430.024 162.831 429.695 162.438 429.467 161.986C429.239 161.534 429.119 161.035 429.116 160.528V143.311C429.034 141.851 429.034 140.388 429.116 138.928V138.866C429.513 135.653 430.763 132.605 432.735 130.037ZM442.41 147.307C443.671 148.26 445.187 148.818 446.765 148.909C448.343 149.001 449.912 148.623 451.275 147.822C452.638 147.022 453.733 145.835 454.422 144.413C455.111 142.99 455.362 141.395 455.144 139.829C454.926 138.264 454.248 136.798 453.197 135.617C452.146 134.437 450.769 133.594 449.239 133.197C447.709 132.799 446.096 132.864 444.603 133.384C443.11 133.903 441.805 134.853 440.852 136.115C439.575 137.806 439.021 139.935 439.314 142.034C439.606 144.132 440.72 146.029 442.41 147.307Z" fill="#F5F5F5"/>
<path d="M397.955 36.6921C398.3 34.4014 401.94 33.5018 404.335 33.9935C405.437 34.3703 406.584 34.6024 407.745 34.6838C410.266 34.5583 412.044 31.8701 414.555 31.5458C416.427 31.3262 418.174 32.5186 419.544 33.8052C420.915 35.0918 422.222 36.5875 424 37.2361C425.538 37.8009 427.421 37.7172 428.571 38.8887C429.429 39.7569 429.617 41.0958 430.36 42.079C431.164 42.9725 432.211 43.6122 433.372 43.92C434.531 44.2294 435.62 44.7546 436.584 45.4681C437.059 45.8326 437.404 46.3415 437.567 46.9186C437.729 47.4957 437.699 48.1098 437.483 48.6688L397.955 36.6921Z" fill="#F5F5F5"/>
<path d="M101.153 74.6202C100.285 71.6705 104.166 68.5534 107.325 67.8212C108.831 67.4655 110.463 67.4655 111.812 66.7752C114.772 65.2166 115.421 60.9908 118.276 59.2545C120.368 57.947 123.161 58.4072 125.546 59.1917C127.931 59.9762 130.316 61.0431 132.805 60.8339C134.97 60.6456 137.188 59.5055 139.228 60.2691C140.744 60.8444 141.717 62.3611 143.15 63.1037C144.619 63.7354 146.24 63.9244 147.815 63.6477C149.381 63.3751 150.985 63.3964 152.543 63.7104C153.318 63.8882 154.015 64.3108 154.531 64.9154C155.047 65.5201 155.355 66.2749 155.409 67.0681L101.153 74.6202Z" fill="#F5F5F5"/>
<path d="M363.205 148.049C363.205 148.049 363.289 148.122 363.477 148.237L364.293 148.739L367.431 150.632L369.722 151.982L372.41 153.666C374.324 154.9 376.594 156.229 378.895 157.85L382.609 160.381C383.895 161.27 385.182 162.264 386.552 163.247C389.293 165.203 392.085 167.431 395.067 169.816C400.914 174.617 407.148 180.151 413.319 186.343C419.084 192.228 424.548 198.4 429.689 204.836C432.001 207.838 434.239 210.652 436.164 213.424C437.137 214.794 438.109 216.102 438.988 217.399L441.478 221.143C443.109 223.497 444.417 225.735 445.662 227.67L447.325 230.369L448.653 232.681L450.505 235.871C450.703 236.216 450.871 236.488 450.996 236.697C451.122 236.907 451.174 236.98 451.184 236.969C451.195 236.959 451.184 236.865 451.049 236.676L450.599 235.819L448.841 232.576C448.444 231.865 448.015 231.091 447.555 230.233C447.095 229.375 446.509 228.486 445.923 227.503C444.741 225.557 443.455 223.319 441.844 220.924L439.375 217.158C438.507 215.851 437.534 214.543 436.572 213.162C434.658 210.38 432.388 207.545 430.129 204.522C419.936 191.569 408.307 179.813 395.464 169.481C392.473 167.149 389.659 164.889 386.897 162.954C385.527 161.971 384.23 160.977 382.933 160.099L379.188 157.599C376.824 155.957 374.586 154.649 372.651 153.415C371.678 152.819 370.789 152.254 369.942 151.752L367.62 150.444L364.387 148.645L363.54 148.195L363.205 148.049Z" fill="#263238"/>
<path d="M337.453 126.062C337.646 126.167 337.854 126.246 338.07 126.293L339.879 126.857C340.664 127.088 341.626 127.37 342.735 127.747C343.844 128.123 345.12 128.489 346.501 128.991C349.272 129.943 352.536 131.197 356.113 132.704C359.691 134.21 363.54 136.041 367.504 138.133C371.469 140.225 375.109 142.453 378.372 144.545C381.636 146.637 384.481 148.728 386.824 150.454C388.006 151.322 389.041 152.16 389.962 152.882C390.882 153.604 391.656 154.221 392.294 154.754L393.769 155.936C393.928 156.09 394.108 156.22 394.303 156.323C394.16 156.153 394.003 155.995 393.832 155.853L392.43 154.587C391.813 154.043 391.06 153.374 390.15 152.641C389.24 151.909 388.225 151.041 387.012 150.152C384.7 148.332 381.845 146.282 378.644 144.127C375.443 141.972 371.72 139.776 367.755 137.652C363.791 135.529 359.9 133.751 356.312 132.234C352.724 130.717 349.419 129.534 346.616 128.635C345.224 128.143 343.948 127.788 342.829 127.454C341.71 127.119 340.737 126.847 339.942 126.648L338.101 126.188C337.888 126.131 337.671 126.09 337.453 126.062Z" fill="#263238"/>
<path d="M466.081 238.391C468 237.424 470.117 236.912 472.267 236.896C474.416 236.88 476.54 237.36 478.474 238.299C480.408 239.237 482.099 240.61 483.416 242.308C484.733 244.007 485.64 245.987 486.067 248.094C486.494 250.201 486.429 252.378 485.878 254.455C485.327 256.533 484.303 258.455 482.888 260.073C481.472 261.691 479.702 262.96 477.716 263.782C475.73 264.604 473.581 264.957 471.436 264.813C470.39 264.74 469.512 264.437 468.361 264.248L455.108 261.832C454.714 261.769 454.34 261.614 454.018 261.378C453.695 261.143 453.434 260.834 453.254 260.478C453.074 260.121 452.982 259.727 452.984 259.328C452.986 258.929 453.083 258.536 453.267 258.182L459.125 246.31C459.565 245.276 460.061 244.267 460.61 243.287C461.958 241.191 463.849 239.5 466.081 238.391ZM466.917 253.611C467.463 254.698 468.32 255.599 469.378 256.2C470.436 256.8 471.649 257.074 472.862 256.985C474.076 256.896 475.236 256.45 476.195 255.702C477.155 254.954 477.871 253.938 478.253 252.783C478.635 251.627 478.666 250.385 478.342 249.212C478.018 248.039 477.353 246.989 476.432 246.194C475.511 245.399 474.374 244.895 473.167 244.747C471.959 244.598 470.734 244.81 469.648 245.358C468.194 246.093 467.09 247.374 466.579 248.921C466.067 250.467 466.189 252.154 466.917 253.611Z" fill="#FBBC05"/>
<path d="M125.743 145.662C124.675 143.798 124.05 141.713 123.919 139.569C123.787 137.424 124.152 135.278 124.985 133.298C125.817 131.317 127.095 129.555 128.719 128.149C130.343 126.742 132.27 125.729 134.349 125.188C136.429 124.647 138.605 124.593 140.708 125.03C142.812 125.467 144.786 126.383 146.478 127.707C148.171 129.031 149.535 130.727 150.465 132.664C151.395 134.6 151.866 136.725 151.841 138.874V138.937C151.841 139.983 151.569 140.882 151.443 142.075L149.738 155.432C149.689 155.819 149.55 156.189 149.334 156.513C149.117 156.838 148.828 157.107 148.489 157.301C148.151 157.495 147.772 157.607 147.382 157.63C146.993 157.652 146.603 157.583 146.245 157.43L134.069 152.2C132.999 151.816 131.952 151.372 130.931 150.871C128.77 149.626 126.979 147.828 125.743 145.662ZM140.9 144.01C141.959 143.408 142.815 142.506 143.361 141.417C143.907 140.328 144.117 139.102 143.965 137.893C143.813 136.685 143.305 135.549 142.507 134.629C141.708 133.709 140.655 133.048 139.479 132.727C138.304 132.407 137.061 132.443 135.906 132.83C134.751 133.218 133.738 133.939 132.993 134.904C132.249 135.868 131.808 137.031 131.726 138.246C131.644 139.461 131.924 140.674 132.532 141.729C133.34 143.14 134.675 144.172 136.244 144.6C137.813 145.027 139.487 144.815 140.9 144.01Z" fill="#FBBC05"/>
<path d="M334.087 138.823C334.822 137.746 335.795 136.854 336.931 136.215C338.066 135.576 339.334 135.208 340.635 135.139C341.936 135.07 343.236 135.302 344.433 135.816C345.63 136.331 346.692 137.115 347.537 138.108C348.381 139.1 348.986 140.273 349.303 141.537C349.62 142.801 349.641 144.121 349.365 145.394C349.089 146.668 348.523 147.861 347.711 148.88C346.899 149.899 345.863 150.717 344.683 151.27C344.108 151.542 343.554 151.636 342.884 151.877L335.144 154.471C334.919 154.545 334.68 154.567 334.446 154.534C334.212 154.501 333.988 154.414 333.793 154.28C333.597 154.147 333.435 153.97 333.32 153.763C333.204 153.557 333.137 153.326 333.125 153.09L332.759 145.067C332.69 144.39 332.659 143.709 332.665 143.028C332.756 141.524 333.248 140.073 334.087 138.823ZM338.993 146.647C339.6 147.064 340.318 147.291 341.054 147.3C341.79 147.309 342.513 147.1 343.13 146.699C343.748 146.297 344.232 145.722 344.523 145.045C344.813 144.368 344.896 143.62 344.762 142.896C344.627 142.172 344.281 141.504 343.767 140.977C343.253 140.45 342.594 140.087 341.873 139.934C341.153 139.781 340.403 139.846 339.719 140.119C339.035 140.392 338.448 140.862 338.031 141.469C337.754 141.872 337.559 142.326 337.458 142.804C337.357 143.283 337.35 143.776 337.44 144.257C337.529 144.738 337.712 145.196 337.979 145.606C338.245 146.016 338.59 146.37 338.993 146.647Z" fill="#FBBC05"/>
<path d="M33.6842 238.862C32.6838 238.03 31.8885 236.979 31.3598 235.79C30.8312 234.601 30.5835 233.307 30.6358 232.007C30.6882 230.707 31.0393 229.436 31.6619 228.294C32.2844 227.151 33.1617 226.167 34.2258 225.419C35.2898 224.67 36.512 224.176 37.7976 223.976C39.0832 223.776 40.3976 223.874 41.639 224.264C42.8804 224.654 44.0153 225.324 44.9559 226.223C45.8964 227.122 46.6173 228.225 47.0626 229.448C47.2822 230.055 47.324 230.619 47.5019 231.299L49.3637 239.249C49.4192 239.48 49.4203 239.72 49.3668 239.951C49.3132 240.182 49.2066 240.397 49.0554 240.58C48.9042 240.763 48.7124 240.908 48.4954 241.004C48.2784 241.099 48.0421 241.143 47.8052 241.132L39.7824 240.755C39.1013 240.758 38.4206 240.727 37.7427 240.661C36.2533 240.435 34.8517 239.814 33.6842 238.862ZM41.9372 234.678C42.4101 234.112 42.7044 233.419 42.7829 232.686C42.8613 231.953 42.7204 231.213 42.3779 230.56C42.0353 229.907 41.5067 229.37 40.8589 229.018C40.2111 228.666 39.4734 228.514 38.7391 228.581C38.0049 228.649 37.3072 228.933 36.7346 229.397C36.1619 229.862 35.74 230.486 35.5224 231.19C35.3048 231.895 35.3012 232.648 35.5121 233.355C35.723 234.061 36.1389 234.689 36.7072 235.159C37.4629 235.789 38.4372 236.094 39.4171 236.008C40.397 235.921 41.303 235.451 41.9372 234.699V234.678Z" fill="#FBBC05"/>
<path d="M466.568 368.378C466.664 334.098 458.849 300.257 443.732 269.492C428.614 238.728 406.6 211.868 379.406 191.005C352.213 170.141 320.572 155.838 286.948 149.207C253.324 142.576 218.624 143.797 185.548 152.775C152.473 161.754 121.915 178.246 96.2548 200.97C70.5944 223.693 50.5231 252.033 37.6039 283.785C24.6849 315.537 19.267 349.842 21.7711 384.032C24.2752 418.221 34.6339 451.369 52.0413 480.899C60.501 495.307 71.2471 505.599 81.9933 520.693L211.176 691.991C214.926 696.963 219.78 700.997 225.355 703.776C230.929 706.555 237.072 708 243.3 708C249.528 708 255.672 706.555 261.246 703.776C266.82 700.997 271.674 696.963 275.424 691.991L402.549 523.438C414.095 509.805 424.86 495.525 434.787 480.67C455.274 446.775 466.251 407.984 466.568 368.378ZM244.1 465.347C224.681 465.393 205.685 459.671 189.52 448.908C173.355 438.143 160.748 422.823 153.295 404.886C145.843 386.948 143.881 367.202 147.659 348.15C151.436 329.096 160.782 311.593 174.514 297.858C188.246 284.123 205.744 274.774 224.792 270.996C243.842 267.217 263.58 269.179 281.513 276.634C299.445 284.088 314.764 296.699 325.524 312.868C336.284 329.038 342.004 348.039 341.959 367.463C341.929 380.366 339.355 393.137 334.384 405.046C329.411 416.952 322.142 427.76 312.988 436.853C303.835 445.947 292.977 453.144 281.039 458.031C269.1 462.921 256.314 465.407 243.414 465.347H244.1Z" fill="url(#paint0_linear_2176_6683)"/>
<path d="M20.0751 368.378C19.9793 334.098 27.7967 300.257 42.9187 269.492C58.0407 238.728 80.0592 211.868 107.26 191.005C134.461 170.141 166.11 155.838 199.743 149.207C233.376 142.576 268.086 143.797 301.17 152.775C334.254 161.754 364.818 178.246 390.485 200.97C416.152 223.693 436.23 252.033 449.152 283.785C462.076 315.537 467.494 349.842 464.99 384.032C462.485 418.221 452.123 451.369 434.712 480.899C426.25 495.307 415.501 505.599 404.752 520.693L275.535 691.991C271.785 696.963 266.929 700.997 261.353 703.776C255.778 706.555 249.632 708 243.403 708C237.173 708 231.028 706.555 225.452 703.776C219.877 700.997 215.021 696.963 211.27 691.991L84.1114 523.438C72.5615 509.805 61.7958 495.525 51.8649 480.67C31.3739 446.775 20.3923 407.984 20.0751 368.378ZM242.602 465.347C262.026 465.393 281.026 459.671 297.196 448.908C313.367 438.143 325.978 422.823 333.431 404.886C340.884 386.948 342.847 367.202 339.069 348.15C335.29 329.096 325.941 311.593 312.208 297.858C298.472 284.123 280.969 274.774 261.916 270.996C242.861 267.217 223.116 269.179 205.179 276.634C187.241 284.088 171.92 296.699 161.157 312.868C150.394 329.038 144.673 348.039 144.718 367.463C144.748 380.366 147.323 393.137 152.295 405.046C157.268 416.952 164.54 427.76 173.696 436.853C182.852 445.947 193.712 453.144 205.654 458.031C217.595 462.921 230.385 465.407 243.288 465.347H242.602Z" fill="url(#paint1_linear_2176_6683)"/>
<path d="M128.207 268.462C127.904 268.73 127.627 269.028 127.38 269.353L125.283 271.91C123.445 274.095 120.771 277.306 117.392 281.165C114.013 285.024 109.91 289.567 105.47 294.691C100.608 300.247 96.0549 306.092 91.8312 312.199C87.6407 318.357 84.1424 325.014 81.4004 332.048C79.1915 337.801 77.7331 343.868 77.0625 350.094C76.6037 354.295 76.6262 358.562 77.1294 362.807C77.2602 364.309 77.5748 365.46 77.6912 366.24C77.7538 366.644 77.8453 367.045 77.965 367.437C77.9711 367.033 77.9357 366.628 77.8594 366.228C77.789 365.44 77.5507 364.292 77.4913 362.784C77.1097 358.572 77.1744 354.352 77.6842 350.201C78.4549 344.043 79.9846 338.051 82.2359 332.373C84.9893 325.411 88.4801 318.82 92.6461 312.718C96.8306 306.645 101.323 300.816 106.107 295.254C110.531 290.124 114.517 285.491 117.881 281.573C121.244 277.654 123.832 274.417 125.578 272.117C126.461 270.975 127.109 270.075 127.559 269.441C127.811 269.144 128.029 268.815 128.207 268.462Z" fill="#E0E0E0"/>
<path d="M123.66 302.956C123.339 302.536 122.58 302.533 121.948 302.591C116.808 303.095 111.939 304.954 107.792 307.993C104.028 310.647 101.244 314.536 99.8535 319.086L100.792 318.885C105.532 318.551 110.02 316.828 113.744 313.913C117.18 311.183 120.303 308.057 123.056 304.589C123.562 304.101 124.011 303.441 123.66 302.956Z" fill="#EBEBEB"/>
<path d="M107.301 260.224C106.791 260.171 106.281 260.701 105.929 261.276C102.983 265.572 101.166 270.628 100.647 275.975C100.132 280.749 101.115 285.645 103.449 289.939L103.919 289.083C106.727 285.225 108.404 280.572 108.761 275.65C109.03 271.056 108.816 266.42 108.125 261.825C108.044 261.121 107.872 260.301 107.301 260.224Z" fill="#EBEBEB"/>
<path d="M114.009 308.741C113.943 308.6 112.121 310.631 108.576 313.071C105.031 315.511 99.7777 318.18 94.1826 321.499C88.5874 324.819 84.092 329.16 81.9672 333.069C81.0957 334.581 80.4416 336.225 80.0247 337.952C79.8407 338.575 79.7523 339.228 79.7625 339.889C80.3975 337.604 81.3129 335.427 82.4867 333.409C84.6928 329.727 89.0554 325.58 94.6659 322.24C100.276 318.901 105.534 316.242 108.978 313.559C110.345 312.544 111.63 311.416 112.82 310.185C113.276 309.761 113.676 309.276 114.009 308.741Z" fill="#E0E0E0"/>
<path d="M156.55 268.056C156.321 267.567 155.557 267.421 154.915 267.351C149.729 266.82 144.562 267.66 139.896 269.792C135.684 271.634 132.22 274.871 130.018 279.023L130.986 279.02C135.735 279.64 140.49 278.871 144.715 276.798C148.64 274.827 152.325 272.401 155.702 269.566C156.243 269.154 156.814 268.595 156.55 268.056Z" fill="#EBEBEB"/>
<path d="M145.92 271.755C145.849 271.603 143.686 273.224 139.744 274.896C135.802 276.567 130.056 278.102 123.815 280.253C118.516 282.312 113.773 285.58 109.92 289.826C108.425 291.413 107.302 292.787 106.562 293.755C106.148 294.235 105.791 294.767 105.5 295.339C105.561 295.469 107.291 293.322 110.342 290.278C114.247 286.248 118.934 283.124 124.12 281.091C130.3 278.969 136.071 277.408 139.998 275.466C141.555 274.755 143.048 273.911 144.461 272.941C144.997 272.614 145.487 272.216 145.92 271.755Z" fill="#E0E0E0"/>
<path d="M106.125 267.676C105.997 268.292 105.93 268.923 105.924 269.559C105.836 270.779 105.681 272.521 105.424 274.681C105.167 276.842 104.812 279.379 104.269 282.177C103.725 285.204 102.905 288.156 101.817 290.994C101.249 292.439 100.392 293.82 99.6816 295.173C98.9716 296.525 98.2871 297.825 97.6129 299.068C96.3051 301.587 95.2372 303.875 94.4143 305.863C93.5914 307.851 93.0135 309.486 92.6758 310.651C92.4638 311.23 92.3311 311.84 92.2812 312.465C92.4086 312.525 93.2373 309.991 95.0155 306.139C95.8893 304.206 97.0336 301.949 98.3514 299.478L100.461 295.616C101.235 294.226 101.937 292.792 102.566 291.32C103.693 288.447 104.527 285.447 105.053 282.366C105.536 279.491 105.849 276.946 106.036 274.766C106.222 272.586 106.275 270.813 106.261 269.587C106.298 268.951 106.252 268.308 106.125 267.676Z" fill="#E0E0E0"/>
<path d="M51.7768 356.388C55.3084 353.985 57.777 350.357 58.7386 346.157C59.7002 341.958 59.0918 337.462 57.0228 333.477C52.2403 339.461 49.9418 348.639 51.7768 356.388Z" fill="#F5F5F5"/>
<path d="M175.998 263.459C179.124 263.63 182.221 262.612 184.736 260.587C187.251 258.561 189.019 255.66 189.725 252.402C186.853 253.138 184.149 254.502 181.785 256.406C179.421 258.309 177.45 260.712 175.998 263.459Z" fill="#F5F5F5"/>
<path d="M77.7799 307.774C76.0186 303.856 75.8025 299.476 77.1703 295.422C78.5381 291.367 81.4003 287.902 85.2439 285.648C86.2279 293.249 83.4079 302.223 77.7799 307.774Z" fill="#EBEBEB"/>
<path d="M149.713 217.891C150.53 222.158 149.781 226.674 147.603 230.629C145.424 234.585 141.958 237.72 137.826 239.472C138.565 231.536 143.178 222.768 149.713 217.891Z" fill="#EBEBEB"/>
<path d="M198.661 163C198.078 167.484 196.01 171.581 192.828 174.556C189.646 177.53 185.559 179.186 181.301 179.227C184.413 171.804 191.273 165.082 198.661 163Z" fill="#EBEBEB"/>
</g>
</g>
<defs>
<linearGradient id="paint0_linear_2176_6683" x1="243.873" y1="145" x2="243.873" y2="708" gradientUnits="userSpaceOnUse">
<stop stop-color="#957003" stop-opacity="0"/>
<stop offset="0.335" stop-color="#FBBC05" stop-opacity="0"/>
<stop offset="0.43" stop-color="#FBBC05"/>
<stop offset="1" stop-color="#FBBC05"/>
</linearGradient>
<linearGradient id="paint1_linear_2176_6683" x1="242.83" y1="145" x2="242.83" y2="708" gradientUnits="userSpaceOnUse">
<stop stop-color="#957003" stop-opacity="0"/>
<stop offset="0.335" stop-color="#FBBC05" stop-opacity="0"/>
<stop offset="0.43" stop-color="#FBBC05"/>
<stop offset="1" stop-color="#FBBC05"/>
</linearGradient>
<clipPath id="clip0_2176_6683">
<rect width="487" height="368" fill="white"/>
</clipPath>
</defs>
</svg>
