<svg width="700" height="700" viewBox="0 0 700 700" fill="none" xmlns="http://www.w3.org/2000/svg">
<rect x="217" y="180" width="265" height="230" fill="white"/>
<path d="M547.657 298.382C547.742 267.937 540.8 237.884 527.371 210.562C513.941 183.239 494.385 159.385 470.228 140.857C446.072 122.328 417.963 109.625 388.094 103.736C358.225 97.8473 327.399 98.9319 298.018 106.905C268.636 114.879 241.49 129.526 218.695 149.707C195.9 169.887 178.07 195.056 166.594 223.255C155.117 251.454 150.304 281.921 152.529 312.285C154.753 342.648 163.955 372.086 179.419 398.312C186.934 411.108 196.48 420.248 206.026 433.653L320.783 585.782C324.115 590.198 328.427 593.781 333.379 596.249C338.331 598.716 343.788 600 349.32 600C354.853 600 360.311 598.716 365.262 596.249C370.214 593.781 374.526 590.198 377.857 585.782L490.786 436.09C501.043 423.983 510.606 411.301 519.425 398.109C537.624 368.006 547.375 333.556 547.657 298.382ZM350.031 384.5C332.78 384.541 315.906 379.459 301.546 369.901C287.186 360.34 275.986 346.734 269.366 330.804C262.746 314.874 261.003 297.338 264.359 280.417C267.715 263.496 276.017 247.951 288.215 235.753C300.414 223.555 315.958 215.252 332.879 211.897C349.802 208.541 367.336 210.284 383.266 216.904C399.196 223.524 412.804 234.724 422.363 249.084C431.921 263.444 437.003 280.319 436.962 297.569C436.936 309.029 434.649 320.37 430.233 330.946C425.816 341.52 419.359 351.119 411.226 359.195C403.096 367.271 393.45 373.662 382.846 378.003C372.239 382.345 360.881 384.553 349.422 384.5H350.031Z" fill="#FBBC05"/>
<path d="M152.001 298.382C151.916 267.937 158.858 237.884 172.288 210.562C185.718 183.239 205.273 159.385 229.43 140.857C253.587 122.328 281.694 109.625 311.564 103.736C341.433 97.8473 372.259 98.9319 401.641 106.905C431.023 114.879 458.167 129.526 480.962 149.707C503.757 169.887 521.588 195.056 533.064 223.255C544.541 251.454 549.353 281.921 547.129 312.285C544.905 342.648 535.702 372.086 520.239 398.312C512.724 411.108 503.178 420.248 493.632 433.653L378.875 585.782C375.544 590.198 371.232 593.781 366.28 596.249C361.328 598.716 355.871 600 350.338 600C344.805 600 339.348 598.716 334.396 596.249C329.444 593.781 325.132 590.198 321.8 585.782L208.871 436.09C198.614 423.983 189.053 411.301 180.233 398.109C162.035 368.006 152.282 333.556 152.001 298.382ZM349.627 384.5C366.877 384.541 383.751 379.459 398.111 369.901C412.473 360.34 423.673 346.734 430.292 330.804C436.911 314.874 438.654 297.338 435.299 280.417C431.943 263.496 423.64 247.951 411.443 235.753C399.245 223.555 383.701 215.252 366.78 211.897C349.856 208.541 332.321 210.284 316.391 216.904C300.461 223.524 286.855 234.724 277.296 249.084C267.737 263.444 262.656 280.319 262.696 297.569C262.722 309.029 265.009 320.37 269.426 330.946C273.842 341.52 280.3 351.119 288.432 359.195C296.563 367.271 306.208 373.662 316.813 378.003C327.418 382.345 338.777 384.553 350.236 384.5H349.627Z" fill="#FBBC05"/>
</svg>
